<?xml version="1.0" encoding="UTF-8" standalone="no"?>
<svg
   width="37"
   height="42"
   viewBox="0 0 35.238095 42"
   version="1.1"
   id="svg188"
   sodipodi:docname="logo-certora.svg"
   inkscape:version="1.1.2 (0a00cf5339, 2022-02-04)"
   xmlns:inkscape="http://www.inkscape.org/namespaces/inkscape"
   xmlns:sodipodi="http://sodipodi.sourceforge.net/DTD/sodipodi-0.dtd"
   xmlns="http://www.w3.org/2000/svg"
   xmlns:svg="http://www.w3.org/2000/svg"
   xmlns:rdf="http://www.w3.org/1999/02/22-rdf-syntax-ns#"
   xmlns:cc="http://creativecommons.org/ns#"
   xmlns:dc="http://purl.org/dc/elements/1.1/">
  <sodipodi:namedview
     id="namedview190"
     pagecolor="#ffffff"
     bordercolor="#666666"
     borderopacity="1.0"
     inkscape:pageshadow="2"
     inkscape:pageopacity="0.0"
     inkscape:pagecheckerboard="0"
     showgrid="false"
     inkscape:zoom="20.785714"
     inkscape:cx="21"
     inkscape:cy="20.975945"
     inkscape:window-width="2560"
     inkscape:window-height="1403"
     inkscape:window-x="0"
     inkscape:window-y="0"
     inkscape:window-maximized="1"
     inkscape:current-layer="svg188" />
  <!-- Generator: Sketch 51.3 (57544) - http://www.bohemiancoding.com/sketch -->
  <title
     id="title169">logo</title>
  <desc
     id="desc171">Created with Sketch.</desc>
  <defs
     id="defs173" />
  <g
     id="Page-1"
     stroke="none"
     stroke-width="1"
     fill="none"
     fill-rule="evenodd"
     transform="translate(-0.81185566,0.05506336)">
    <g
       id="logo"
       transform="translate(1,1)">
      <!--<path d="M49,24.5232 L49,11.9568 L51.9568,9 L60.2464,9 L63.0976,11.8512 L63.0976,13.9368 L60.5632,13.9368 L60.5632,12.7488 L59.032,11.2176 L53.1712,11.2176 L51.5344,12.8544 L51.5344,23.6256 L53.1712,25.2624 L59.032,25.2624 L60.5632,23.7312 L60.5632,22.5432 L63.0976,22.5432 L63.0976,24.6288 L60.2464,27.48 L51.9568,27.48 L49,24.5232 Z M66.1336,9 L78.5416,9 L78.5416,11.2176 L68.668,11.2176 L68.668,17.1048 L77.776,17.1048 L77.776,19.296 L68.668,19.296 L68.668,25.2624 L78.5416,25.2624 L78.5416,27.48 L66.1336,27.48 L66.1336,9 Z M95.2792,21.672 L95.2792,27.48 L92.7448,27.48 L92.7448,22.3056 L90.5536,19.956 L84.244,19.956 L84.244,27.48 L81.7096,27.48 L81.7096,9 L92.6128,9 L95.1736,11.5608 L95.1736,17.316 L93.1408,19.3488 L95.2792,21.672 Z M84.244,17.7912 L91.4776,17.7912 L92.6656,16.6296 L92.6656,12.3264 L91.4776,11.1648 L84.244,11.1648 L84.244,17.7912 Z M102.9616,11.1912 L97.3912,11.1912 L97.3912,9 L111.0664,9 L111.0664,11.1912 L105.496,11.1912 L105.496,27.48 L102.9616,27.48 L102.9616,11.1912 Z M113.0464,24.5232 L113.0464,11.9568 L116.0032,9 L124.7152,9 L127.672,11.9568 L127.672,24.5232 L124.7152,27.48 L116.0032,27.48 L113.0464,24.5232 Z M123.5008,25.2624 L125.1376,23.6256 L125.1376,12.8544 L123.5008,11.2176 L117.2176,11.2176 L115.5808,12.8544 L115.5808,23.6256 L117.2176,25.2624 L123.5008,25.2624 Z M144.9376,21.672 L144.9376,27.48 L142.4032,27.48 L142.4032,22.3056 L140.212,19.956 L133.9024,19.956 L133.9024,27.48 L131.368,27.48 L131.368,9 L142.2712,9 L144.832,11.5608 L144.832,17.316 L142.7992,19.3488 L144.9376,21.672 Z M133.9024,17.7912 L141.136,17.7912 L142.324,16.6296 L142.324,12.3264 L141.136,11.1648 L133.9024,11.1648 L133.9024,17.7912 Z M153.808,9 L156.3424,9 L162.9952,27.48 L160.3816,27.48 L158.7448,22.7808 L151.432,22.7808 L149.7952,27.48 L147.1816,27.48 L153.808,9 Z M158.0848,20.6424 L155.1016,12.0096 L155.0488,12.0096 L152.1184,20.6424 L158.0848,20.6424 Z" id="Certora" fill="#2D505F"/>-->
      <g
         id="Group"
         fill-rule="nonzero">
        <g
           id="Group-4">
          <polygon
             id="Polygon-Copy"
             stroke="#2d505f"
             stroke-width="1.44"
             fill="#79f2a5"
             points="17.4,39.6 0.65684219,29.941463 0.65684219,0.48292683 34.143158,0.48292683 34.143158,29.941463 " />
          <polygon
             id="Polygon"
             stroke="#2d505f"
             stroke-width="1.44"
             fill="#3399d6"
             points="34.143158,10.62439 34.143158,29.941463 17.4,39.6 0.65684219,29.941463 0.65684219,10.62439 17.4,0.96585366 " />
          <polygon
             id="Polygon-Copy-2"
             fill="#40dcff"
             points="0.65684219,29.941463 17.4,0.96585366 34.143158,29.941463 17.4,39.6 " />
          <path
             d="M 1.0690217,10.806359 33.889001,29.857796"
             id="Path-3"
             stroke="#2d505f"
             stroke-width="1.44" />
          <path
             d="M 1.0690217,10.806359 33.889001,29.857796"
             id="Path-3-Copy"
             stroke="#2d505f"
             stroke-width="1.44"
             transform="matrix(-1,0,0,1,34.958024,0)" />
          <path
             d="M 17.479011,1.382946 V 39.059282"
             id="Path-3-Copy-2"
             stroke="#2d505f"
             stroke-width="1.44"
             transform="matrix(-1,0,0,1,34.958024,0)" />
          <path
             d="M 1.002438,1.1559931 17.409909,29.769853"
             id="Path-3-Copy-3"
             stroke="#2d505f"
             stroke-width="1.44"
             transform="matrix(-1,0,0,1,18.412348,0)" />
          <path
             d="M 17.347666,0.94521929 33.912345,29.769853"
             id="Path-3-Copy-4"
             stroke="#2d505f"
             stroke-width="1.44" />
          <polygon
             id="Polygon-Copy-3"
             stroke="#2d505f"
             stroke-width="1.44"
             points="34.143158,10.62439 34.143158,29.941463 17.4,39.6 0.65684219,29.941463 0.65684219,10.62439 17.4,0.96585366 " />
        </g>
      </g>
    </g>
  </g>
  <metadata
     id="metadata192">
    <rdf:RDF>
      <cc:Work
         rdf:about="">
        <dc:title>logo</dc:title>
      </cc:Work>
    </rdf:RDF>
  </metadata>
</svg>
